<svg xmlns="http://www.w3.org/2000/svg" xml:space="preserve" width="512px" height="512px" version="1.1" style="shape-rendering:geometricPrecision; text-rendering:geometricPrecision; image-rendering:optimizeQuality; fill-rule:evenodd; clip-rule:evenodd" viewBox="0 0 512 512" xmlns:xlink="http://www.w3.org/1999/xlink">
 <defs>
  <style type="text/css">
   
    .fil0 {fill:black}
   
  </style>
 </defs>
 <g id="Layer_x0020_1">
  <metadata id="CorelCorpID_0Corel-Layer"></metadata>
  <path class="fil0" d="M504 364l-497 0c-4,0 -7,-4 -7,-8 0,-4 3,-7 7,-7l497 0c4,0 7,3 7,7 0,4 -3,8 -7,8z" id="id_101" style="fill: rgb(255, 255, 255);"></path>
  <path class="fil0" d="M445 423c-2,0 -4,-1 -5,-2 -3,-3 -3,-8 0,-11l54 -54 -54 -54c-3,-3 -3,-7 0,-10 3,-3 7,-3 10,0l60 59c3,3 3,8 0,11l-60 59c-1,1 -3,2 -5,2z" id="id_102" style="fill: rgb(255, 255, 255);"></path>
  <path class="fil0" d="M233 364c-4,0 -8,-4 -8,-8 0,-4 4,-7 8,-7 67,0 123,-55 123,-123 0,-67 -55,-122 -123,-122 -68,0 -122,55 -122,122 0,5 -4,8 -8,8 -4,0 -7,-3 -7,-8 0,-75 61,-137 137,-137 75,0 137,62 137,137 0,76 -61,138 -137,138z" id="id_103" style="fill: rgb(255, 255, 255);"></path>
  <path class="fil0" d="M105 238c-2,0 -4,-1 -5,-2l-59 -59c-3,-3 -3,-8 0,-11 3,-3 7,-3 10,0l54 54 54 -54c3,-3 8,-3 11,0 2,3 2,8 0,11l-60 59c-1,2 -3,2 -5,2z" id="id_104" style="fill: rgb(255, 255, 255);"></path>
  <path class="fil0" d="M253 304l-24 0c-4,0 -7,-3 -7,-7l-1 -11c-2,-1 -5,-2 -8,-4l-8 8c-3,2 -8,2 -10,-1l-17 -17c-3,-3 -3,-7 -1,-10l7 -8c-1,-2 -2,-5 -3,-8l-11 0c-4,-1 -7,-4 -7,-7l0 -25c0,-3 3,-7 7,-7l11 0c1,-3 2,-6 3,-8l-7 -8c-2,-3 -2,-7 1,-10l17 -17c3,-3 7,-3 10,-1l8 8c3,-1 6,-3 8,-4l1 -11c0,-3 3,-7 7,-7l24 0c4,0 7,3 7,7l1 11c2,1 5,2 8,3l8 -7c3,-3 7,-3 10,0l17 17c3,3 3,7 0,10l-7 8c1,3 3,6 4,9l11 0c3,1 7,4 7,7l0 25c0,3 -3,7 -7,7l-11 0c-1,3 -2,6 -4,9l8 8c2,3 2,7 -1,10l-17 17c-3,3 -7,3 -10,0l-8 -7c-2,1 -5,2 -8,3l0 11c-1,4 -4,7 -8,7zm-25 -132l0 0 0 0zm13 92c-21,0 -38,-17 -38,-38 0,-21 17,-38 38,-38 21,0 38,17 38,38 0,21 -17,38 -38,38zm0 -62c-13,0 -24,11 -24,24 0,13 11,24 24,24 13,0 24,-11 24,-24 0,-13 -11,-24 -24,-24z" id="id_105" style="fill: rgb(255, 255, 255);"></path>
 </g>
</svg>