<svg version="1.1" xmlns="http://www.w3.org/2000/svg" xmlns:xlink="http://www.w3.org/1999/xlink" x="0px" y="0px" width="512px" height="512px" viewBox="0 0 512 512" style="enable-background:new 0 0 512 512;" xml:space="preserve">
<g id="B_-_125_x2C__flowchart_x2C__Algorithm_x2C__business_x2C__data_architecture_x2C__scheme_x2C__structure_x2C__workflow">
	<g>
		<g>
			<path d="M406.1,313.554c-1.986,0-3.597-1.61-3.597-3.597v-61.135h-39.019c-1.986,0-3.597-1.61-3.597-3.597
				s1.61-3.597,3.597-3.597H406.1c1.986,0,3.597,1.61,3.597,3.597v64.731C409.696,311.943,408.086,313.554,406.1,313.554z" id="id_101" style="fill: rgb(255, 255, 255);"></path>
		</g>
		<g>
			<path d="M406.097,313.554c-0.701,0-1.409-0.204-2.03-0.63l-16.401-11.242c-1.639-1.123-2.057-3.362-0.934-5
				c1.125-1.641,3.364-2.055,5-0.934l16.401,11.242c1.639,1.123,2.057,3.362,0.934,5
				C408.369,313.008,407.242,313.554,406.097,313.554z" id="id_102" style="fill: rgb(255, 255, 255);"></path>
		</g>
		<g>
			<path d="M406.103,313.554c-1.147,0-2.274-0.548-2.972-1.565c-1.121-1.64-0.701-3.878,0.938-5l16.434-11.242
				c1.639-1.12,3.877-0.701,5,0.938c1.121,1.64,0.701,3.878-0.938,5l-16.434,11.242C407.51,313.351,406.803,313.554,406.103,313.554
				z" id="id_103" style="fill: rgb(255, 255, 255);"></path>
		</g>
		<g>
			<path d="M105.899,313.554c-1.986,0-3.597-1.61-3.597-3.597v-64.731c0-1.986,1.61-3.597,3.597-3.597h42.618
				c1.986,0,3.597,1.61,3.597,3.597s-1.61,3.597-3.597,3.597h-39.021v61.135C109.496,311.943,107.886,313.554,105.899,313.554z" id="id_104" style="fill: rgb(255, 255, 255);"></path>
		</g>
		<g>
			<path d="M105.903,313.554c-1.146,0-2.273-0.546-2.97-1.563c-1.123-1.639-0.705-3.877,0.934-5l16.402-11.242
				c1.638-1.123,3.877-0.705,5,0.934c1.123,1.639,0.705,3.877-0.934,5l-16.402,11.242
				C107.312,313.35,106.603,313.554,105.903,313.554z" id="id_105" style="fill: rgb(255, 255, 255);"></path>
		</g>
		<g>
			<path d="M105.896,313.554c-0.7,0-1.406-0.203-2.027-0.628l-16.432-11.242c-1.64-1.122-2.06-3.36-0.938-5
				c1.121-1.639,3.36-2.059,4.999-0.938l16.432,11.242c1.64,1.122,2.06,3.36,0.938,5
				C108.171,313.006,107.043,313.554,105.896,313.554z" id="id_106" style="fill: rgb(255, 255, 255);"></path>
		</g>
		<g>
			<path d="M102.589,448.229c-36.287,0-65.809-21.494-65.809-47.914c0-26.416,29.521-47.907,65.809-47.907
				s65.809,21.491,65.809,47.907C168.397,426.735,138.876,448.229,102.589,448.229z M102.589,359.602
				c-32.32,0-58.615,18.265-58.615,40.714c0,22.453,26.295,40.721,58.615,40.721s58.615-18.268,58.615-40.721
				C161.204,377.866,134.909,359.602,102.589,359.602z" id="id_107" style="fill: rgb(255, 255, 255);"></path>
		</g>
		<g>
			<path d="M256.03,448.229c-36.319,0-65.867-21.494-65.867-47.914c0-26.416,29.548-47.907,65.867-47.907
				c36.254,0,65.748,21.491,65.748,47.907C321.778,426.735,292.284,448.229,256.03,448.229z M256.03,359.602
				c-32.353,0-58.674,18.265-58.674,40.714c0,22.453,26.321,40.721,58.674,40.721c32.287,0,58.555-18.268,58.555-40.721
				C314.585,377.866,288.317,359.602,256.03,359.602z" id="id_108" style="fill: rgb(255, 255, 255);"></path>
		</g>
		<g>
			<path d="M409.412,448.229c-36.287,0-65.809-21.494-65.809-47.914c0-26.416,29.521-47.907,65.809-47.907
				c36.286,0,65.808,21.491,65.808,47.907C475.22,426.735,445.698,448.229,409.412,448.229z M409.412,359.602
				c-32.32,0-58.615,18.265-58.615,40.714c0,22.453,26.295,40.721,58.615,40.721s58.614-18.268,58.614-40.721
				C468.026,377.866,441.732,359.602,409.412,359.602z" id="id_109" style="fill: rgb(255, 255, 255);"></path>
		</g>
		<g>
			<path d="M256.03,308.506c-0.92,0-1.839-0.351-2.542-1.052l-59.766-59.684c-0.675-0.674-1.055-1.589-1.055-2.543
				c0-0.955,0.378-1.87,1.053-2.544l59.766-59.773c0.674-0.675,1.589-1.054,2.543-1.054h0c0.954,0,1.869,0.379,2.543,1.054
				l59.736,59.773c0.675,0.675,1.053,1.59,1.053,2.544s-0.38,1.869-1.055,2.543l-59.736,59.683
				C257.87,308.155,256.95,308.506,256.03,308.506z M201.353,245.224l54.677,54.602l54.65-54.602l-54.65-54.684L201.353,245.224z" id="id_110" style="fill: rgb(255, 255, 255);"></path>
		</g>
		<g>
			<path d="M256.027,347.859c-0.699,0-1.404-0.203-2.025-0.627l-16.461-11.243c-1.641-1.12-2.062-3.358-0.942-4.998
				c1.121-1.64,3.357-2.062,4.999-0.941l16.461,11.243c1.641,1.12,2.063,3.358,0.941,4.998
				C258.304,347.311,257.175,347.859,256.027,347.859z" id="id_111" style="fill: rgb(255, 255, 255);"></path>
		</g>
		<g>
			<path d="M256.034,347.859c-1.146,0-2.271-0.545-2.968-1.561c-1.125-1.638-0.708-3.877,0.929-5.001l16.373-11.243
				c1.636-1.126,3.875-0.71,5.001,0.929c1.125,1.638,0.709,3.877-0.929,5.001l-16.373,11.243
				C257.444,347.655,256.735,347.859,256.034,347.859z" id="id_112" style="fill: rgb(255, 255, 255);"></path>
		</g>
		<g>
			<path d="M256.03,347.859c-1.986,0-3.597-1.61-3.597-3.597v-85.892c0-1.986,1.61-3.597,3.597-3.597s3.597,1.61,3.597,3.597v85.892
				C259.627,346.249,258.017,347.859,256.03,347.859z" id="id_113" style="fill: rgb(255, 255, 255);"></path>
		</g>
		<g>
			<path d="M256.027,171.357c-0.703,0-1.413-0.206-2.035-0.634l-16.461-11.326c-1.637-1.126-2.05-3.365-0.924-5.001
				c1.125-1.637,3.365-2.051,5.001-0.924l16.462,11.326c1.636,1.126,2.05,3.365,0.924,5.001
				C258.296,170.813,257.171,171.357,256.027,171.357z" id="id_114" style="fill: rgb(255, 255, 255);"></path>
		</g>
		<g>
			<path d="M256.034,171.357c-1.141,0-2.263-0.542-2.961-1.551c-1.13-1.634-0.722-3.874,0.912-5.004l16.374-11.326
				c1.632-1.129,3.874-0.723,5.004,0.912c1.13,1.634,0.722,3.874-0.912,5.004l-16.373,11.326
				C257.452,171.15,256.739,171.357,256.034,171.357z" id="id_115" style="fill: rgb(255, 255, 255);"></path>
		</g>
		<g>
			<path d="M256.03,170.611c-1.986,0-3.597-1.61-3.597-3.597v-37.533c0-1.986,1.61-3.597,3.597-3.597s3.597,1.61,3.597,3.597v37.533
				C259.627,169.001,258.017,170.611,256.03,170.611z" id="id_116" style="fill: rgb(255, 255, 255);"></path>
		</g>
		<g>
			<path d="M328.441,133.078H183.561c-1.986,0-3.597-1.61-3.597-3.597V90.293c0-1.986,1.61-3.597,3.597-3.597h144.881
				c1.986,0,3.597,1.61,3.597,3.597v39.188C332.038,131.468,330.428,133.078,328.441,133.078z M187.157,125.885h137.688V93.89
				H187.157V125.885z" id="id_117" style="fill: rgb(255, 255, 255);"></path>
		</g>
		<g>
			<path d="M303.57,93.89h-95.137c-1.986,0-3.597-1.61-3.597-3.597V67.367c0-1.986,1.61-3.597,3.597-3.597h95.137
				c1.986,0,3.597,1.61,3.597,3.597v22.926C307.167,92.279,305.557,93.89,303.57,93.89z M212.03,86.696h87.943V70.964H212.03V86.696
				z" id="id_118" style="fill: rgb(255, 255, 255);"></path>
		</g>
		<g>
			<path d="M347.2,403.912h-29.019c-1.986,0-3.597-1.61-3.597-3.597s1.61-3.597,3.597-3.597H347.2c1.986,0,3.597,1.61,3.597,3.597
				S349.187,403.912,347.2,403.912z" id="id_119" style="fill: rgb(255, 255, 255);"></path>
		</g>
		<g>
			<path d="M193.76,403.912h-28.959c-1.986,0-3.597-1.61-3.597-3.597s1.61-3.597,3.597-3.597h28.959c1.986,0,3.597,1.61,3.597,3.597
				S195.746,403.912,193.76,403.912z" id="id_120" style="fill: rgb(255, 255, 255);"></path>
		</g>
	</g>
</g>
<g id="Layer_1">
</g>
</svg>