<svg version="1.1" id="Layer_3" xmlns="http://www.w3.org/2000/svg" xmlns:xlink="http://www.w3.org/1999/xlink" x="0px" y="0px" viewBox="0 0 64 64" style="enable-background:new 0 0 64 64;" xml:space="preserve">
<g>
	<path d="M62,7H2C1.448,7,1,7.447,1,8v48c0,0.553,0.448,1,1,1h60c0.552,0,1-0.447,1-1V8C63,7.447,62.552,7,62,7z M61,9v6H3V9H61z
		 M3,55V17h58v38H3z" id="id_117" style="fill: rgb(255, 255, 255);"></path>
	<rect x="57" y="11" width="2" height="2" id="id_118" style="fill: rgb(255, 255, 255);"></rect>
	<rect x="53" y="11" width="2" height="2" id="id_119" style="fill: rgb(255, 255, 255);"></rect>
	<rect x="49" y="11" width="2" height="2" id="id_120" style="fill: rgb(255, 255, 255);"></rect>
	<path d="M58,19H16c-0.552,0-1,0.447-1,1v6c0,0.553,0.448,1,1,1h42c0.552,0,1-0.447,1-1v-6C59,19.447,58.552,19,58,19z M57,25H17v-4
		h40V25z" id="id_121" style="fill: rgb(255, 255, 255);"></path>
	<path d="M30,29H6c-0.552,0-1,0.447-1,1v22c0,0.553,0.448,1,1,1h24c0.552,0,1-0.447,1-1V30C31,29.447,30.552,29,30,29z M16.52,41
		L7,49.727V32.273L16.52,41z M8.571,31h18.858L18,39.643L8.571,31z M18,42.357L27.429,51H8.571L18,42.357z M19.48,41L29,32.273
		v17.453L19.48,41z" id="id_122" style="fill: rgb(255, 255, 255);"></path>
	<path d="M58,29H34c-0.552,0-1,0.447-1,1v22c0,0.553,0.448,1,1,1h24c0.552,0,1-0.447,1-1V30C59,29.447,58.552,29,58,29z M44.52,41
		L35,49.727V32.273L44.52,41z M36.571,31h18.858L46,39.643L36.571,31z M46,42.357L55.429,51H36.571L46,42.357z M47.48,41L57,32.273
		v17.453L47.48,41z" id="id_123" style="fill: rgb(255, 255, 255);"></path>
	<path d="M9,27c2.206,0,4-1.794,4-4s-1.794-4-4-4s-4,1.794-4,4S6.794,27,9,27z M9,21c1.103,0,2,0.897,2,2s-0.897,2-2,2s-2-0.897-2-2
		S7.897,21,9,21z" id="id_124" style="fill: rgb(255, 255, 255);"></path>
</g>
</svg>